<svg xmlns="http://www.w3.org/2000/svg" viewBox="0 0 1000 324" fill="none">
  <path d="M431.578 0.478L285.468 323.478H191.478L119.178 60.278C114.878 43.878 111.178 37.878 98.678 31.178C78.178 20.178 44.478 9.978 14.478 3.578L16.578 0.478H163.678C182.078 0.478 198.678 12.778 202.678 34.178L237.878 218.178L330.078 0.478H431.578Z" fill="#1434CB"/>
  <path d="M737.578 217.778C738.078 126.978 614.278 122.078 615.078 81.278C615.278 68.878 627.078 55.578 652.878 52.278C665.678 50.578 701.878 49.278 742.878 68.078L758.478 1.478C736.978-6.822 709.278 0.478 675.678 0.478C580.278 0.478 512.878 51.578 512.278 125.478C511.578 180.078 560.978 210.878 599.178 229.278C638.478 248.178 651.878 260.078 651.478 276.678C651.178 302.078 620.578 313.178 592.078 313.578C546.478 314.278 520.278 301.678 499.478 292.078L483.278 361.178C504.178 370.678 543.278 378.978 583.978 379.378C685.478 379.378 753.178 329.378 737.578 217.778Z" fill="#1434CB"/>
  <path d="M930.678 0.478C916.478 0.478 904.478 8.978 899.078 22.378L757.278 323.478H858.678L878.678 268.178H1003.38L1014.98 323.478H1104.18L1025.28 0.478H930.678ZM904.478 193.178L955.878 54.578L984.778 193.178H904.478Z" fill="#1434CB"/>
  <path d="M486.578 0.478L407.878 323.478H311.478L390.278 0.478H486.578Z" fill="#1434CB"/>
</svg>
